<svg width="193" height="53" viewBox="0 0 193 53" fill="none" xmlns="http://www.w3.org/2000/svg">
<path d="M5.30272 43.3989H32.3716L27.0689 36.2294H0L5.30272 43.3989Z" fill="#EAE228"/>
<path d="M27.0848 36.2179L32.2629 43.4519L31.43 14.5926L27.0848 8.42023V36.2179Z" fill="#AEA817"/>
<path d="M27.085 36.2292H0V8.42006H27.085V36.2292Z" fill="#C9C218"/>
<path d="M29.1307 40.2306L53.0838 52.9583L51.7625 44.1048L27.8093 31.3772L29.1307 40.2306Z" fill="#E30000"/>
<path d="M51.78 44.1091L53.0981 52.9583L66.1191 28.3496L64.8011 19.5003L51.78 44.1091Z" fill="#9D0000"/>
<path d="M51.775 44.1006L27.8282 31.3923L41.0982 8.29213L64.8206 19.5183L51.775 44.1006Z" fill="#BF0000"/>
<path d="M70.0144 41.6609L96.9701 38.9585L90.9752 32.3187L64.0192 35.0211L70.0144 41.6609Z" fill="#4BEFEF"/>
<path d="M90.9741 32.2816L96.9702 38.9089L94.2035 11.2094L88.2074 4.58197L90.9741 32.2816Z" fill="#1F8989"/>
<path d="M90.983 32.3064L64.0076 35.0029L61.2395 7.31142L88.2149 4.6149L90.983 32.3064Z" fill="#2CB3B3"/>
<path d="M96.0486 37.8637L122.534 43.6885L118.893 35.5362L92.4075 29.7115L96.0486 37.8637Z" fill="#6F7DFD"/>
<path d="M118.913 35.5251L122.554 43.6885L128.545 16.5109L124.904 8.34764L118.913 35.5251Z" fill="#404CB6"/>
<path d="M118.89 35.5453L92.4147 29.7124L98.4024 2.53467L124.877 8.36753L118.89 35.5453Z" fill="#5864D7"/>
<path d="M137.888 43.0369L163.886 35.2098L156.715 29.8565L130.718 37.6835L137.888 43.0369Z" fill="#FA3E8C"/>
<path d="M156.718 29.8624L163.886 35.2156L155.845 8.55936L148.678 3.20605L156.718 29.8624Z" fill="#A5245A"/>
<path d="M156.705 29.8573L130.749 37.6807L122.718 11.0351L148.674 3.21175L156.705 29.8573Z" fill="#CC3071"/>
<path d="M164.748 40.36L191.84 41.009L186.705 33.6919L159.613 33.0429L164.748 40.36Z" fill="#87F445"/>
<path d="M186.698 33.6973L191.827 41.009L192.492 13.1972L187.363 5.88546L186.698 33.6973Z" fill="#60B32D"/>
<path d="M186.689 33.6995L159.586 33.0508L160.252 5.22923L187.355 5.878L186.689 33.6995Z" fill="#74D738"/>
<path d="M13.9851 14.748C15.6328 14.748 17.0783 15.0701 18.3216 15.7142C19.5799 16.3583 20.546 17.2795 21.2201 18.4779C21.9091 19.6612 22.2537 21.0393 22.2537 22.6122C22.2537 24.185 21.9091 25.5631 21.2201 26.7465C20.546 27.9149 19.5799 28.8211 18.3216 29.4652C17.0783 30.1093 15.6328 30.4314 13.9851 30.4314H8.50263V14.748H13.9851ZM13.8727 27.7576C15.5205 27.7576 16.7937 27.3082 17.6925 26.4094C18.5912 25.5107 19.0406 24.2449 19.0406 22.6122C19.0406 20.9794 18.5912 19.7062 17.6925 18.7924C16.7937 17.8637 15.5205 17.3994 13.8727 17.3994H11.6483V27.7576H13.8727Z" fill="white"/>
<path d="M44.7361 33.5747L44.7952 26.5518L43.511 25.8104L40.4552 31.1031L37.731 29.5303L45.5726 15.9481L50.6708 18.8916C51.7216 19.4982 52.5081 20.2031 53.0303 21.0062C53.5601 21.7964 53.823 22.6141 53.8193 23.4595C53.836 24.2994 53.6196 25.1085 53.1703 25.8868C52.6535 26.7819 51.9259 27.4429 50.9876 27.8698C50.0568 28.2837 49.0003 28.331 47.8182 28.0117L47.8884 35.3947L44.7361 33.5747ZM44.6906 23.7672L46.9673 25.0816C47.7067 25.5085 48.3591 25.6517 48.9246 25.5112C49.4975 25.3577 49.9675 24.9631 50.3345 24.3274C50.694 23.7047 50.7895 23.1199 50.621 22.5729C50.46 22.0129 50.0098 21.5195 49.2703 21.0926L46.9937 19.7782L44.6906 23.7672Z" fill="white"/>
<path d="M74.3854 15.4086L74.8437 19.3139L80.088 18.6985L80.3787 21.1755L75.1344 21.791L75.6189 25.9194L81.5326 25.2254L81.8312 27.7694L72.7933 28.8301L70.9627 13.2313L80.0006 12.1706L80.2992 14.7146L74.3854 15.4086Z" fill="white"/>
<path d="M146.393 10.1197L150.846 25.1576L147.83 26.0507L144.933 16.2696L143.801 27.2438L141.517 27.92L134.57 19.3383L137.467 29.1194L134.451 30.0126L129.997 14.9747L133.423 13.9603L141.517 23.7255L142.989 11.1277L146.393 10.1197Z" fill="white"/>
<path d="M173.485 27.462C172.394 27.3894 171.42 27.1369 170.563 26.7045C169.721 26.2732 169.069 25.6894 168.608 24.9531C168.147 24.2168 167.94 23.3699 167.989 22.4123L171.352 22.6361C171.354 23.2818 171.544 23.8049 171.923 24.2054C172.317 24.6069 172.872 24.8315 173.59 24.8792C174.322 24.928 174.909 24.7944 175.35 24.4785C175.793 24.1476 176.033 23.6982 176.07 23.1302C176.101 22.6669 175.985 22.2763 175.72 21.9585C175.456 21.6407 175.113 21.3851 174.691 21.1919C174.284 20.9847 173.714 20.7516 172.981 20.4926C171.984 20.1261 171.174 19.7794 170.55 19.4527C169.942 19.112 169.426 18.6347 169.002 18.021C168.593 17.3933 168.422 16.5862 168.487 15.5998C168.549 14.6731 168.834 13.8814 169.343 13.2247C169.852 12.568 170.537 12.0882 171.398 11.7852C172.26 11.4672 173.229 11.344 174.305 11.4156C175.919 11.5231 177.201 12.0062 178.15 12.865C179.114 13.7098 179.602 14.8382 179.613 16.2501L176.161 16.0203C176.167 15.4803 175.964 15.0239 175.554 14.6513C175.159 14.2648 174.611 14.0481 173.908 14.0014C173.295 13.9606 172.792 14.0847 172.397 14.3737C172.017 14.6637 171.808 15.1077 171.768 15.7055C171.74 16.124 171.851 16.4842 172.101 16.7861C172.367 17.074 172.696 17.3211 173.088 17.5273C173.495 17.7195 174.065 17.9526 174.798 18.2266C175.794 18.5931 176.604 18.9472 177.227 19.2889C177.85 19.6306 178.373 20.1158 178.796 20.7445C179.22 21.3732 179.399 22.1733 179.335 23.1448C179.279 23.9818 179.01 24.7446 178.529 25.4331C178.048 26.1217 177.375 26.6549 176.509 27.0326C175.644 27.3954 174.636 27.5385 173.485 27.462Z" fill="white"/>
<path d="M110.775 24.1519L104.742 22.5352L102.97 25.1542L99.7795 24.2993L109.292 10.5883L112.83 11.5362L114.212 28.1666L111 27.3059L110.775 24.1519ZM110.602 21.5001L110.108 14.5753L106.218 20.3254L110.602 21.5001Z" fill="white"/>
</svg>
